<svg width="157" height="47" viewBox="0 0 157 47" fill="none" xmlns="http://www.w3.org/2000/svg">
<g clip-path="url(#clip0_2_27)">
<path d="M112.412 36.4265V45.9643H117.148L117.868 44.5806H113.922V36.4265H112.412Z" fill="#2F80ED"/>
<path d="M104.216 44.8633C102.029 44.8633 101.361 43.0944 101.361 41.1976C101.361 39.2553 102.13 37.5237 104.216 37.5319C106.313 37.5253 107.08 39.2553 107.08 41.1976C107.08 43.0944 106.404 44.8633 104.216 44.8633ZM104.216 36.2692C101.336 36.2692 99.8358 38.3639 99.8358 41.1976C99.8358 44.0976 101.323 46.1271 104.216 46.1271C107.113 46.1271 108.605 44.0976 108.605 41.1976C108.605 38.3639 107.1 36.2692 104.216 36.2692Z" fill="#2F80ED"/>
<path d="M123.315 44.6778H122.426V37.7537H123.476C125.433 37.7537 126.808 38.6102 126.808 41.1715C126.808 44.0319 125.657 44.6778 123.315 44.6778ZM123.326 36.4259H120.957V45.9637H123.326C126.454 45.9637 128.384 44.8966 128.384 41.1169C128.384 37.7048 126.138 36.4259 123.326 36.4259Z" fill="#2F80ED"/>
<path d="M155.25 40.2371C156.297 40.2371 157.138 39.3888 157.132 38.3403C157.132 37.2871 156.286 36.4446 155.245 36.4446C154.206 36.4446 153.355 37.2871 153.355 38.3403C153.355 39.3888 154.206 40.2371 155.25 40.2371Z" fill="#2F80ED"/>
<path d="M143.316 25.7711C147.096 28.6339 148.238 29.594 148.238 30.8892C148.24 31.9842 147.288 32.523 146.437 32.523C143.796 32.523 140.277 29.5462 138.627 25.8619L137.478 25.5035V33.1782L138.411 33.4622C138.942 33.0188 139.43 33.0142 140.38 33.7334C142.011 34.9576 144.478 36.5216 147.059 36.5216C149.538 36.5216 152.7 34.6772 152.702 30.7775C152.702 27.7449 150.836 25.6874 146.082 22.1986C142.143 19.3056 141.221 18.4246 141.221 17.2551C141.221 16.2671 141.847 15.4968 143.008 15.4991C143.99 15.4967 145.28 16.0425 146.744 17.2237C147.996 18.2408 149.32 20.3052 149.825 21.6632L151.001 22.1066L151.005 14.7112L150.167 14.3412C149.552 14.8299 149.137 14.5414 147.837 13.7093C146.059 12.5735 144.247 11.6367 142.155 11.6367C139.315 11.6367 136.647 13.736 136.646 17.2551C136.646 20.3366 138.377 22.038 143.316 25.7712" fill="#2F80ED"/>
<path d="M109.635 6.48013L109.626 22.9398C109.629 24.3025 109.184 24.7878 108.301 24.9472L108.307 26.0911C109.697 26.3052 113.517 27.0116 115.136 27.3503L115.127 26.2366C114.27 25.7199 113.823 25.2695 113.823 23.9964L113.836 12.1218L120.831 22.2671L127.71 14.7518V26.4205C127.71 28.2103 127.336 28.7653 126.378 28.8561V29.9756L133.24 31.8259L133.242 30.6692C132.504 30.1897 131.927 29.6475 131.917 28.4011L131.927 11.8321C131.927 10.6276 132.416 10.0655 133.297 9.98991V8.84601C131.982 8.46081 129.422 7.76254 128.133 7.41459L121.079 15.151L113.855 4.11078L108.239 3.10419L108.245 4.24814C108.939 4.66942 109.629 5.38739 109.636 6.48013" fill="#2F80ED"/>
<path d="M53.9148 36.4265H52.4493V42.3439C52.4493 44.9146 53.6972 46.1272 56.0284 46.1272C58.3713 46.1272 59.6156 44.9553 59.6156 42.3439V36.4265H58.156V42.1694C58.156 43.8521 57.789 44.8134 56.0284 44.8134C54.2782 44.8134 53.9148 43.7101 53.9148 42.1694V36.4265Z" fill="#2F80ED"/>
<path d="M44.5903 44.8633C42.4026 44.8633 41.737 43.0944 41.737 41.1976C41.737 39.2553 42.4998 37.5237 44.5903 37.5319C46.6819 37.5253 47.4436 39.2553 47.4436 41.1976C47.4436 43.0944 46.7792 44.8633 44.5903 44.8633ZM44.5903 36.2692C41.7092 36.2692 40.2044 38.3639 40.2044 41.1976C40.2044 44.0976 41.6965 46.1271 44.5903 46.1271C47.4876 46.1271 48.9796 44.0976 48.9796 41.1976C48.9796 38.3639 47.4679 36.2692 44.5903 36.2692Z" fill="#2F80ED"/>
<path d="M12.3913 27.6154L17.423 16.2668L21.4339 24.6351L12.3913 27.6154ZM29.6211 29.1712L17.7819 4.8891L13.9551 9.16462L14.8232 11.0032L2.98632 37.7106C2.37399 39.0966 1.93413 39.8786 1 40.6176V41.9477L9.93497 38.8825L9.92917 37.6221C8.59573 37.4394 8.37002 36.7354 8.87933 35.6194L9.98824 33.1616L23.3635 28.5893L24.3752 30.7096C25.0384 31.9199 24.6588 32.823 23.9145 33.292V34.586L32.2198 32.2039L32.2279 30.8889C31.1954 30.754 30.4419 30.619 29.6212 29.1712" fill="#2F80ED"/>
<path d="M90.4159 15.7951L94.0991 8.78953L97.1203 16.3747L90.4159 15.7951ZM103.847 21.5415L95.2868 0L91.6915 2.68117L92.1823 3.91236C92.1823 3.91236 84.23 19.2874 83.3295 20.6978C82.7507 21.58 82.1847 22.1409 81.2691 22.341L81.2667 23.4617C82.8386 23.5152 86.6967 23.6946 88.3867 23.8329L88.3788 22.6925C87.5057 22.4516 87.3078 21.7639 87.7789 20.8713L88.5533 19.405L98.684 20.2603L99.3646 21.9325C99.7894 22.988 99.4248 23.4082 98.5856 23.5874V24.7174C99.955 24.8813 104.38 25.4772 105.978 25.6879L105.982 24.53C105.069 24.0645 104.615 23.3034 103.846 21.5415" fill="#2F80ED"/>
<path d="M33.9556 44.839C33.2124 44.839 32.3651 44.4572 31.8766 44.2676L31.3129 45.536C32.0271 45.82 33.0677 46.1272 33.7796 46.1272C35.9893 46.1272 37.4849 45.3289 37.4849 43.2831C37.4849 40.0177 33.18 40.4389 33.18 38.7434C33.18 37.8217 34.0817 37.582 34.9024 37.582C35.6571 37.582 36.0438 37.8145 36.7823 38.0847L37.427 36.8488C36.6561 36.4346 35.509 36.2426 34.8388 36.2426C33.0041 36.2426 31.5201 37.1689 31.5201 38.8644C31.5201 41.811 35.8319 41.2232 35.8319 43.3657C35.8319 44.5189 34.9175 44.839 33.9556 44.839Z" fill="#2F80ED"/>
<path d="M41.3937 23.1215L38.6863 23.7185L38.6922 8.64833C40.0314 8.00831 41.902 7.5533 43.1683 7.5533C46.2925 7.55446 48.9004 10.018 48.8981 13.8665C48.8922 19.3825 45.5818 22.215 41.3938 23.1215H41.3937ZM47.2255 3.74448C44.0839 2.74484 38.6864 3.69894 32.6394 6.16382L32.6358 7.2973C33.6718 7.44278 34.0086 7.96523 34.0086 9.16386V25.6526C34.0086 27.1899 33.5352 27.6449 32.659 28.193V29.3404L42.1762 27.1899C45.893 26.359 48.8852 24.8229 51.2199 22.0893C52.8521 20.1843 53.9992 17.2052 53.9992 13.8665C53.9992 8.67744 50.8982 4.90936 47.2253 3.74448" fill="#2F80ED"/>
<path d="M81.0194 45.9643V36.4265H79.5887V40.3121H75.1935V36.4265H73.7593V45.9643H75.1935V41.7213H79.5887V45.9643H81.0194Z" fill="#2F80ED"/>
<path d="M93.9873 43.999L92.119 36.4267H89.8966L88.0596 44.0165H88.0284L86.181 36.4267H84.7341L87.107 45.9645H88.9903L90.9859 38.0815H91.0079L92.9884 45.9645H94.8231L97.2516 36.4267H95.8533L94.0117 43.999H93.9873Z" fill="#2F80ED"/>
<path d="M67.3579 45.9643V37.7542H69.5468L70.1615 36.4265H63.1723V37.7542H65.83V45.9643H67.3579Z" fill="#2F80ED"/>
<path d="M58.6777 4.92749V21.2661C58.6777 22.6707 58.1012 23.0594 57.2933 23.4236V24.5745C58.8142 24.3743 63.0381 23.981 64.4908 23.8507V22.6998C63.4305 22.4461 62.9385 21.9154 62.9316 20.5236L62.9385 8.38256L71.3398 17.1337C73.6491 19.5356 77.6657 23.1804 78.7445 23.9741L78.7422 3.3192C78.7422 2.23115 79.2955 1.72846 80.1069 1.5213V0.377346C78.2375 0.357553 74.7012 0.344382 73.1212 0.380668V1.52457C73.9465 1.76769 74.4894 2.27984 74.4894 3.44353L74.4812 13.4748L62.6408 1.01257C60.8421 1.15804 58.9727 1.35584 57.197 1.55251L57.1994 2.60334C57.9263 2.82337 58.6775 3.69261 58.6775 4.92729" fill="#2F80ED"/>
</g>
<defs>
<clipPath id="clip0_2_27">
<rect width="157" height="47" fill="white"/>
</clipPath>
</defs>
</svg>
