<svg width="251" height="30" viewBox="0 0 251 30" fill="none" xmlns="http://www.w3.org/2000/svg">
<g clip-path="url(#clip0_2_4)">
<path d="M116.9 1.29998H108.8V8.19998H116.7V9.29998H108.8V16.3H117.1V17.4H107.5V0.199982H116.9V1.29998Z" fill="white"/>
<path d="M133.5 0.199982H135.2L127.8 8.59998L135.7 17.4H134L127 9.49998L120 17.4H118.3L126.1 8.59998L118.7 0.199982H120.4L127 7.59998L133.5 0.199982Z" fill="white"/>
<path d="M152.4 2.79999C150.2 1.69999 148.3 1.09999 146.2 1.09999C141.9 1.09999 138.7 4.39999 138.7 8.69999C138.7 13.2 141.9 16.3 146.4 16.3C148.4 16.3 150.2 15.8 152.6 14.5V16C150.6 17.1 148.5 17.6 146.5 17.6C141.2 17.6 137.3 13.8 137.3 8.79999C137.3 3.49999 141.6 -0.100006 146.4 -0.100006C148.3 -0.100006 150.4 0.399994 152.5 1.29999V2.79999H152.4Z" fill="white"/>
<path d="M169.8 17.4H168.5V9.19998H157V17.4H155.7V0.199982H157V8.19998H168.5V0.199982H169.8V17.4Z" fill="white"/>
<path d="M188.9 17.4H187.5L184.8 11.4H176.4L173.7 17.4H172.3L180.3 0H181L188.9 17.4ZM180.6 2.2L176.9 10.3H184.3L180.6 2.2Z" fill="white"/>
<path d="M207 17.4H205.9L192.7 2.29998V17.4H191.4V0.199982H192.5L205.6 15.3V0.199982H206.9V17.4H207Z" fill="white"/>
<path d="M225.8 2.9C223.7 1.7 221.7 1.2 219.7 1.2C215.3 1.2 212.1 4.4 212.1 8.8C212.1 12.7 214.7 16.4 220.1 16.4C222.1 16.4 223.5 16 224.8 15.3V10.6H221.2V9.6H226.2V16.2C224.1 17.2 222.1 17.7 220.1 17.7C214.7 17.7 210.7 13.9 210.7 8.8C210.7 3.7 214.6 0 220 0C222 0 223.5 0.4 225.9 1.5V2.9H225.8Z" fill="white"/>
<path d="M239.6 1.29998H231.5V8.19998H239.4V9.29998H231.5V16.3H239.8V17.4H230.2V0.199982H239.6V1.29998Z" fill="white"/>
<path d="M36.2 8.69999C36.2 9.19999 36.1 9.7 36 10.1L35.1 8.99999H30.2L33.7 13.3C32.9 13.8 31.9 14 30.8 14C27.5 14 25.4 11.9 25.4 8.79999C25.4 5.69999 27.6 3.59999 30.8 3.59999C34 3.49999 36.2 5.59999 36.2 8.69999ZM40.3 6.39999C39.3 2.99999 36.1 -0.100006 30.8 -0.100006C24.3 -0.100006 21 4.59999 21 8.69999C21 13.1 24.5 17.5 30.8 17.5C30.9 17.5 31 17.5 31.1 17.5L34.3 13.6L36.8 10.7L40.1 6.59999L40.3 6.39999Z" fill="white"/>
<path d="M9.59998 4.49999L12.4 11.2H7.09998L9.59998 4.49999ZM6.99998 0.399994L0.0999756 17.6H4.59998L5.89998 14.2H13.6L15 17.6H19.6L12 0.399994H6.99998Z" fill="white"/>
<path d="M92.6 1.3C90.4 0.4 88.7 0 86.8 0C82.8 0 80.3 2 80.3 4.9C80.3 11.1 89 10 89 12.9C89 13.9 88.1 14.5 86.5 14.5C84.6 14.5 83.1 13.9 80.6 12.3V16C82.3 16.9 83.8 17.7 86.8 17.7C90.6 17.7 93.4 15.8 93.4 12.5C93.4 6.5 84.7 7.2 84.7 4.6C84.7 3.7 85.7 3.2 87.2 3.2C88.7 3.2 90.1 3.6 92.6 4.7V1.3ZM74.1 0.2H69.8V17.4H74.1V0.2ZM59.3 0.2V9.8C59.3 12.9 57.2 14.1 54.9 14.1C52.4 14.1 50.6 12.6 50.6 10.1V0.2H46.3V10C46.3 15.3 49.9 17.6 54.9 17.6C59.6 17.6 63.5 15.6 63.5 9.9V0.2H59.3Z" fill="white"/>
<path d="M96.6 0.799988C96.9 0.799988 97.1 0.899988 97.4 0.999988C97.6 1.09999 97.8 1.29999 98 1.59999C98 1.79999 98.1 1.99999 98.1 2.29999C98.1 2.59999 98 2.79999 97.9 3.09999C97.8 3.39999 97.6 3.49999 97.3 3.59999C97.1 3.69999 96.8 3.79999 96.5 3.79999C96.2 3.79999 96 3.69999 95.7 3.59999C95.5 3.49999 95.3 3.29999 95.1 3.09999C95 2.89999 94.9 2.59999 94.9 2.29999C94.9 1.99999 95 1.79999 95.1 1.49999C95.2 1.29999 95.4 1.09999 95.7 0.999988C96 0.899988 96.3 0.799988 96.6 0.799988ZM96.6 0.999988C96.3 0.999988 96 1.09999 95.7 1.39999C95.5 1.59999 95.3 1.89999 95.3 2.29999C95.3 2.59999 95.4 2.89999 95.7 3.19999C95.9 3.39999 96.2 3.59999 96.6 3.59999C96.9 3.59999 97.2 3.49999 97.5 3.19999C97.7 2.99999 97.9 2.69999 97.9 2.29999C97.9 1.89999 97.8 1.69999 97.5 1.39999C97.2 1.19999 96.9 0.999988 96.6 0.999988ZM96.2 3.09999H96V1.49999H96.6C96.8 1.49999 96.9 1.49999 97 1.49999C97.1 1.49999 97.1 1.59999 97.2 1.69999C97.2 1.79999 97.3 1.89999 97.3 1.89999C97.3 1.99999 97.3 2.09999 97.2 2.19999C97.1 2.29999 97 2.29999 96.9 2.29999C97 2.29999 97 2.39999 97.1 2.39999C97.2 2.49999 97.2 2.59999 97.3 2.69999L97.5 2.99999H97L96.9 2.69999C96.8 2.49999 96.7 2.39999 96.7 2.29999C96.6 2.19999 96.6 2.19999 96.5 2.19999H96.3V3.09999H96.2ZM96.2 1.69999V2.19999H96.5C96.6 2.19999 96.7 2.19999 96.8 2.09999C96.9 2.09999 97 1.99999 97 1.99999C97 1.89999 97 1.79999 96.9 1.79999C96.8 1.79999 96.7 1.69999 96.6 1.69999H96.2Z" fill="white"/>
<path d="M40.7 6.99999L37.4 11.1L34.9 14L21.8 30H26.7L37.4 16.9L37.8 16.5L38.7 17.6H43.7L40.3 13.5L45.5 6.99999L45.7 6.79999V0.799988L40.7 6.99999Z" fill="url(#paint0_linear_2_4)"/>
</g>
<defs>
<linearGradient id="paint0_linear_2_4" x1="33.7674" y1="29.9805" x2="33.7674" y2="0.835589" gradientUnits="userSpaceOnUse">
<stop stop-color="white" stop-opacity="0"/>
<stop offset="0.6" stop-color="white"/>
</linearGradient>
<clipPath id="clip0_2_4">
<rect width="251" height="30" fill="white"/>
</clipPath>
</defs>
</svg>
